<svg width="30" height="30" fill="none" xmlns="http://www.w3.org/2000/svg"><path d="M5.667 14.999V15c0 .736.597 1.333 1.333 1.333h3.334c.736 0 1.333-.597 1.333-1.333v-.001c0-.736-.597-1.333-1.333-1.333H7c-.736 0-1.333.597-1.333 1.333Zm12.666 0V15c0 .736.597 1.333 1.333 1.333H23c.736 0 1.333-.597 1.333-1.333v-.001c0-.736-.597-1.333-1.333-1.333h-3.334c-.736 0-1.333.597-1.333 1.333Zm-7.999-8.082a1.333 1.333 0 0 0-.489 1.821l1.667 2.888a1.333 1.333 0 0 0 1.821.488h.001a1.333 1.333 0 0 0 .488-1.822l-1.667-2.887a1.333 1.333 0 0 0-1.821-.488Zm6.332 10.97a1.333 1.333 0 0 0-.489 1.822l1.667 2.887a1.333 1.333 0 0 0 1.821.488h.001a1.333 1.333 0 0 0 .488-1.822l-1.667-2.887a1.333 1.333 0 0 0-1.821-.488Zm-6.333 5.195v.001c.638.368 1.454.15 1.822-.488l1.667-2.887a1.333 1.333 0 0 0-.488-1.821h-.001a1.333 1.333 0 0 0-1.82.487l-1.668 2.888a1.333 1.333 0 0 0 .488 1.82Zm6.333-10.969c.638.368 1.454.15 1.822-.488l1.667-2.887a1.333 1.333 0 0 0-.488-1.82l-.001-.001a1.333 1.333 0 0 0-1.82.488l-1.668 2.887a1.333 1.333 0 0 0 .488 1.82Z" fill="#5CBB73"/></svg>